<svg width="2030" height="244" viewBox="0 0 2030 244" fill="none" xmlns="http://www.w3.org/2000/svg">
<path d="M46.5 7.74999C66 7.74999 81 15.4167 91.5 30.75C102.167 46.0833 107.5 64.6667 107.5 86.5C107.5 103.333 104.833 119.25 99.5 134.25C94.1667 149.083 85.8333 161.583 74.5 171.75C63.1667 181.75 49.9167 186.75 34.75 186.75C31.75 186.75 20.4167 185.583 0.750001 183.25C3.08333 147.417 4.25 117.75 4.25 94.25C4.25 70.75 3.5 44.75 2 16.25C18.1667 10.5833 33 7.74999 46.5 7.74999ZM41 156.25C48.6667 156.25 56.25 149.5 63.75 136C71.4167 122.333 75.25 107.667 75.25 92C75.25 76.1667 72.5 63.1667 67 53C61.6667 42.8333 55.25 37.75 47.75 37.75C43.75 37.75 40 38.4167 36.5 39.75C37.1667 64.4167 37.5 85.1667 37.5 102C37.5 118.667 37 136.083 36 154.25C37.1667 155.583 38.8333 156.25 41 156.25ZM193.488 165C199.822 165 206.572 158.917 213.738 146.75L232.738 158C229.572 163.5 226.488 168.167 223.488 172C220.655 175.833 216.322 179.5 210.488 183C204.655 186.5 198.155 188.25 190.988 188.25C180.488 188.25 171.655 183.833 164.488 175C157.322 166 153.738 153.917 153.738 138.75C153.738 121.417 156.822 105.25 162.988 90.25C166.322 82.4167 171.072 76.0833 177.238 71.25C183.572 66.25 189.988 63.75 196.488 63.75C203.155 63.75 208.488 64.8333 212.488 67C216.488 69 219.655 71.3333 221.988 74C224.488 76.5 226.655 80.25 228.488 85.25C230.322 90.25 231.572 94.3333 232.238 97.5C233.072 100.667 233.738 105.25 234.238 111.25C234.905 119.25 235.238 126.5 235.238 133C221.905 136.667 204.655 140 183.488 143C183.988 149.667 185.155 155 186.988 159C188.822 163 190.988 165 193.488 165ZM198.988 88.25C195.322 88.25 191.988 91.9167 188.988 99.25C186.155 106.583 184.488 115.083 183.988 124.75C192.822 122.917 200.488 121.167 206.988 119.5C206.988 98.6667 204.322 88.25 198.988 88.25ZM334.035 92.75C327.035 92.75 321.785 101.583 318.285 119.25C318.618 130.917 318.785 142.083 318.785 152.75C318.785 163.417 318.452 175.417 317.785 188.75L288.785 186.25C289.285 161.75 289.535 148.25 289.535 145.75C289.535 114.917 288.035 91.3333 285.035 75L303.785 77C304.952 81.8333 306.285 86.0833 307.785 89.75C315.952 72.25 324.202 63.5 332.535 63.5C339.368 63.5 345.368 66.5 350.535 72.5L344.035 95.5C341.368 93.6667 338.035 92.75 334.035 92.75ZM433.48 2.49998C430.98 44.6667 429.73 82.6667 429.73 116.5C429.73 150.333 430.147 174.083 430.98 187.75L401.48 185C400.814 167.667 400.48 143.083 400.48 111.25C400.48 79.25 401.73 42.25 404.23 0.249998L433.48 2.49998ZM550.313 57.75L574.313 71.75C560.479 114.583 546.313 171.417 531.813 242.25L504.313 239.75C506.979 226.583 511.396 208.417 517.563 185.25C501.563 154.583 491.479 115.917 487.313 69.25L515.312 72C517.813 102.667 521.813 128.833 527.313 150.5C534.979 114.833 542.646 83.9167 550.313 57.75ZM666.807 104.25C666.807 94.25 664.307 89.25 659.307 89.25C656.807 89.25 654.473 90.5 652.307 93C650.307 95.3333 649.307 98.5833 649.307 102.75C649.307 106.75 650.057 110.083 651.557 112.75C653.223 115.417 656.14 118.083 660.307 120.75C664.64 123.25 667.973 125.333 670.307 127C672.807 128.5 675.723 130.667 679.057 133.5C685.89 139.5 689.307 147.25 689.307 156.75C689.307 166.083 685.723 173.667 678.557 179.5C671.557 185.333 663.64 188.25 654.807 188.25C645.973 188.25 637.973 185.917 630.807 181.25C623.807 176.417 618.14 170.417 613.807 163.25L627.307 148C633.973 159.5 640.973 165.25 648.307 165.25C650.807 165.25 652.973 164.583 654.807 163.25C656.64 161.75 657.557 159.75 657.557 157.25C657.557 151.917 653.723 147 646.057 142.5C637.89 138 631.473 133 626.807 127.5C622.14 122 619.807 114.25 619.807 104.25C619.807 94.0833 623.973 85 632.307 77C640.64 68.8333 649.557 64.75 659.057 64.75C668.723 64.75 676.307 68.0833 681.807 74.75C687.473 81.25 690.307 90.0833 690.307 101.25C690.307 105.75 689.807 110.583 688.807 115.75L666.057 113.75C666.557 109.917 666.807 106.75 666.807 104.25ZM884.273 7.74999C903.773 7.74999 918.773 15.4167 929.273 30.75C939.94 46.0833 945.273 64.6667 945.273 86.5C945.273 103.333 942.607 119.25 937.273 134.25C931.94 149.083 923.607 161.583 912.273 171.75C900.94 181.75 887.69 186.75 872.523 186.75C869.523 186.75 858.19 185.583 838.523 183.25C840.857 147.417 842.023 117.75 842.023 94.25C842.023 70.75 841.273 44.75 839.773 16.25C855.94 10.5833 870.773 7.74999 884.273 7.74999ZM878.773 156.25C886.44 156.25 894.023 149.5 901.523 136C909.19 122.333 913.023 107.667 913.023 92C913.023 76.1667 910.273 63.1667 904.773 53C899.44 42.8333 893.023 37.75 885.523 37.75C881.523 37.75 877.773 38.4167 874.273 39.75C874.94 64.4167 875.273 85.1667 875.273 102C875.273 118.667 874.773 136.083 873.773 154.25C874.94 155.583 876.607 156.25 878.773 156.25ZM1020.51 138C1020.51 156.833 1024.68 166.25 1033.01 166.25C1036.68 166.25 1039.76 161 1042.26 150.5C1044.76 139.833 1046.01 129.667 1046.01 120C1046.01 98.6667 1042.51 88 1035.51 88C1031.01 88 1027.35 93.75 1024.51 105.25C1021.85 116.583 1020.51 127.5 1020.51 138ZM991.262 135.75C991.262 120.25 994.428 105.083 1000.76 90.25C1004.1 82.75 1008.76 76.6667 1014.76 72C1020.93 67.1667 1027.76 64.75 1035.26 64.75C1042.76 64.75 1049.18 66.5 1054.51 70C1060.01 73.3333 1064.18 77.8333 1067.01 83.5C1072.51 94.6667 1075.26 106.833 1075.26 120C1075.26 138.167 1071.51 154.333 1064.01 168.5C1056.68 182.5 1046.35 189.5 1033.01 189.5C1005.18 189.5 991.262 171.583 991.262 135.75ZM1180.05 71.5C1190.22 71.5 1197.97 75 1203.3 82C1211.97 69.3333 1220.55 63 1229.05 63C1252.22 63 1263.8 80.4167 1263.8 115.25C1263.8 134.917 1262.14 158.75 1258.8 186.75L1229.8 184.25C1232.97 153.083 1234.55 129.333 1234.55 113C1234.55 96.6667 1231.89 88.5 1226.55 88.5C1224.22 88.5 1221.47 92.25 1218.3 99.75C1215.14 107.25 1213.05 115.583 1212.05 124.75C1211.72 145.583 1211.05 164.167 1210.05 180.5L1180.8 177.75C1182.14 154.25 1182.8 134.917 1182.8 119.75C1182.8 104.583 1180.72 97 1176.55 97C1173.89 97 1170.39 101.667 1166.05 111C1161.89 120.167 1158.89 129.833 1157.05 140C1157.22 155.333 1157.97 171.167 1159.3 187.5L1130.05 184.75C1128.22 161.25 1127.3 139.833 1127.3 120.5C1127.3 101.167 1127.8 83.0833 1128.8 66.25L1149.55 67.75C1150.55 72.25 1151.97 80.4167 1153.8 92.25C1162.64 78.4167 1171.39 71.5 1180.05 71.5ZM1326.42 63.75L1354.92 66.5V186.5L1326.42 183.75V63.75ZM1328.42 19.75L1356.42 23L1353.92 51L1325.92 47.5L1328.42 19.75ZM1467.5 64C1489.5 64 1500.5 82.3333 1500.5 119C1500.5 138.333 1499.42 158.833 1497.25 180.5L1468 177.75C1469.83 158.75 1470.75 139.583 1470.75 120.25C1470.75 100.75 1468 91 1462.5 91C1459.83 91 1456.42 97.75 1452.25 111.25C1448.08 124.583 1445.5 137.667 1444.5 150.5C1444.83 157.333 1445.5 169.667 1446.5 187.5L1417.25 184.75C1415.42 161.25 1414.5 140.583 1414.5 122.75C1414.5 104.917 1415 88.9167 1416 74.75L1434.5 76.75C1434.83 78.0833 1436.08 83.5 1438.25 93C1447.92 73.6667 1457.67 64 1467.5 64ZM1592.46 216.5C1597.62 216.5 1601.79 211.167 1604.96 200.5C1608.12 190 1609.71 176.917 1609.71 161.25C1600.87 177.083 1591.71 185 1582.21 185C1572.87 185 1565.29 181.833 1559.46 175.5C1553.79 169 1550.96 159.25 1550.96 146.25C1550.96 133.083 1553.21 120.083 1557.71 107.25C1562.21 94.25 1567.71 83.9167 1574.21 76.25C1580.87 68.4167 1587.21 64.5 1593.21 64.5C1603.71 64.5 1613.37 68.75 1622.21 77.25L1639.71 79.75C1637.54 90.5833 1636.46 107.25 1636.46 129.75C1636.46 152.083 1635.79 168.583 1634.46 179.25C1633.29 189.75 1631.29 200.083 1628.46 210.25C1625.62 220.417 1621.46 228.5 1615.96 234.5C1610.46 240.5 1603.21 243.5 1594.21 243.5C1585.21 243.5 1576.62 239.833 1568.46 232.5C1560.29 225.333 1553.71 216.667 1548.71 206.5L1569.71 197.5C1576.21 210.167 1583.79 216.5 1592.46 216.5ZM1599.46 90C1595.29 90 1591.04 96 1586.71 108C1582.54 120 1580.46 132.75 1580.46 146.25C1580.46 151.417 1581.12 155.333 1582.46 158C1583.96 160.667 1585.54 162 1587.21 162C1589.04 162 1591.37 160.333 1594.21 157C1597.04 153.667 1600.04 148.333 1603.21 141C1606.54 133.667 1608.96 125.583 1610.46 116.75L1610.96 97.75C1606.12 92.5833 1602.29 90 1599.46 90ZM1774.78 65.75L1774.28 105.25C1774.28 142.417 1774.95 169.75 1776.28 187.25L1751.53 184.75C1751.03 177.75 1749.95 170.667 1748.28 163.5C1739.11 177 1729.86 183.75 1720.53 183.75C1711.36 183.75 1704.03 180.583 1698.53 174.25C1693.03 167.917 1690.28 159.167 1690.28 148C1690.28 126.333 1691.86 100.5 1695.03 70.5L1724.03 73.25C1721.03 101.75 1719.53 125.417 1719.53 144.25C1719.53 152.75 1722.2 157 1727.53 157C1730.03 157 1733.03 153.583 1736.53 146.75C1740.2 139.917 1743.11 131.667 1745.28 122C1745.11 118.333 1745.03 114 1745.03 109C1745.03 104 1745.28 88.75 1745.78 63.25L1774.78 65.75ZM1866.26 165C1872.6 165 1879.35 158.917 1886.51 146.75L1905.51 158C1902.35 163.5 1899.26 168.167 1896.26 172C1893.43 175.833 1889.1 179.5 1883.26 183C1877.43 186.5 1870.93 188.25 1863.76 188.25C1853.26 188.25 1844.43 183.833 1837.26 175C1830.1 166 1826.51 153.917 1826.51 138.75C1826.51 121.417 1829.6 105.25 1835.76 90.25C1839.1 82.4167 1843.85 76.0833 1850.01 71.25C1856.35 66.25 1862.76 63.75 1869.26 63.75C1875.93 63.75 1881.26 64.8333 1885.26 67C1889.26 69 1892.43 71.3333 1894.76 74C1897.26 76.5 1899.43 80.25 1901.26 85.25C1903.1 90.25 1904.35 94.3333 1905.01 97.5C1905.85 100.667 1906.51 105.25 1907.01 111.25C1907.68 119.25 1908.01 126.5 1908.01 133C1894.68 136.667 1877.43 140 1856.26 143C1856.76 149.667 1857.93 155 1859.76 159C1861.6 163 1863.76 165 1866.26 165ZM1871.76 88.25C1868.1 88.25 1864.76 91.9167 1861.76 99.25C1858.93 106.583 1857.26 115.083 1856.76 124.75C1865.6 122.917 1873.26 121.167 1879.76 119.5C1879.76 98.6667 1877.1 88.25 1871.76 88.25ZM1960.81 67.75C1974.14 65.0833 1986.39 63.75 1997.56 63.75C2008.89 63.75 2017.89 64 2024.56 64.5L2028.56 87.5C2013.89 108 1999.39 131.167 1985.06 157H1997.06C2007.89 157 2018.56 157.583 2029.06 158.75L2025.81 181.75C2015.48 180.75 2006.14 180.25 1997.81 180.25C1989.48 180.25 1977.73 181.5 1962.56 184L1958.06 158.25C1976.89 123.417 1990.81 99.9167 1999.81 87.75C1985.48 88.9167 1974.06 90.5 1965.56 92.5L1960.81 67.75Z" fill="#04668D"/>
</svg>
