<svg width="1490" height="666" viewBox="0 0 1490 666" fill="none" xmlns="http://www.w3.org/2000/svg">
<path d="M413.258 609.74V602.357H394.361V615.512H410.797V621.02H394.361V635.492H413.258V627.436H418.707V641H381.998V635.492H387.682V602.357H381.998V596.85H418.707V609.74H413.258ZM438.219 635.609V641H422.018V635.609H427.467V602.182H422.018V596.85H433.531V635.609H438.219ZM494.674 625.766C494.674 628.637 494.01 631.322 492.682 633.822C491.354 636.322 489.537 638.295 487.232 639.74C484.947 641.186 482.408 641.908 479.615 641.908C475.494 641.908 471.891 640.326 468.805 637.162V649.408H474.811V654.799H457.174V649.408H462.74V615.629H457.584V610.209H468.805V615.131C470.328 613.334 472.008 611.996 473.844 611.117C475.68 610.238 477.643 609.799 479.732 609.799C482.643 609.799 485.23 610.521 487.496 611.967C489.762 613.393 491.52 615.326 492.77 617.768C494.039 620.209 494.674 622.875 494.674 625.766ZM479.527 636.371C481.207 636.371 482.721 635.883 484.068 634.906C485.416 633.93 486.471 632.602 487.232 630.922C487.994 629.242 488.375 627.465 488.375 625.59C488.375 623.695 487.955 621.957 487.115 620.375C486.275 618.773 485.123 617.504 483.658 616.566C482.193 615.609 480.543 615.131 478.707 615.131C476.793 615.131 475.074 615.639 473.551 616.654C472.027 617.65 470.846 618.979 470.006 620.639C469.166 622.299 468.746 624.125 468.746 626.117C468.746 629.32 469.752 631.83 471.764 633.646C473.795 635.463 476.383 636.371 479.527 636.371ZM510.436 628.637V635.609H517.145V641H498.248V635.609H504.43V615.629H498.248V610.209H509.234V617.182C510.465 614.428 511.988 612.514 513.805 611.439C515.641 610.346 518.258 609.799 521.656 609.799H523.033V615.922H521.715C518.434 615.922 515.992 616.352 514.391 617.211C512.789 618.07 511.725 619.369 511.197 621.107C510.689 622.846 510.436 625.355 510.436 628.637ZM555.289 627.143H529.479C529.85 630.092 530.992 632.426 532.906 634.145C534.82 635.844 537.164 636.693 539.938 636.693C541.969 636.693 543.854 636.273 545.592 635.434C547.33 634.594 548.785 633.305 549.957 631.566L555.289 633.969C553.609 636.586 551.402 638.568 548.668 639.916C545.953 641.244 542.994 641.908 539.791 641.908C536.471 641.908 533.521 641.215 530.943 639.828C528.365 638.441 526.354 636.508 524.908 634.027C523.482 631.547 522.77 628.754 522.77 625.648C522.77 622.562 523.473 619.779 524.879 617.299C526.305 614.818 528.248 612.885 530.709 611.498C533.17 610.092 535.885 609.389 538.854 609.389C542.096 609.389 544.918 610.111 547.32 611.557C549.742 612.982 551.646 615.033 553.033 617.709C554.42 620.365 555.172 623.51 555.289 627.143ZM538.971 614.428C536.686 614.428 534.684 615.199 532.965 616.742C531.246 618.266 530.143 620.287 529.654 622.807H548.932C548.365 620.287 547.164 618.266 545.328 616.742C543.492 615.199 541.373 614.428 538.971 614.428ZM583.619 612.436V610.209H589.01V621.869H583.619C583.385 619.623 582.486 617.914 580.924 616.742C579.361 615.551 577.555 614.955 575.504 614.955C573.746 614.955 572.164 615.424 570.758 616.361C569.371 617.299 568.297 618.568 567.535 620.17C566.773 621.771 566.393 623.52 566.393 625.414C566.393 628.637 567.252 631.273 568.971 633.324C570.689 635.355 572.955 636.371 575.768 636.371C580.123 636.371 583.199 634.35 584.996 630.307L590.035 632.709C587.203 638.842 582.359 641.908 575.504 641.908C572.438 641.908 569.713 641.186 567.33 639.74C564.947 638.295 563.102 636.312 561.793 633.793C560.504 631.273 559.859 628.48 559.859 625.414C559.859 622.406 560.514 619.672 561.822 617.211C563.15 614.75 564.967 612.836 567.271 611.469C569.576 610.082 572.145 609.389 574.977 609.389C578.336 609.389 581.217 610.404 583.619 612.436ZM604.215 599.838C604.215 600.834 603.854 601.693 603.131 602.416C602.408 603.139 601.549 603.5 600.553 603.5C599.557 603.5 598.707 603.139 598.004 602.416C597.301 601.693 596.949 600.834 596.949 599.838C596.949 598.842 597.301 597.982 598.004 597.26C598.707 596.537 599.557 596.176 600.553 596.176C601.588 596.176 602.457 596.527 603.16 597.23C603.863 597.934 604.215 598.803 604.215 599.838ZM608.551 635.609V641H592.994V635.609H597.799V615.629H592.994V610.209H603.863V635.609H608.551ZM644.527 625.648C644.527 628.637 643.814 631.371 642.389 633.852C640.963 636.332 639.02 638.295 636.559 639.74C634.098 641.186 631.373 641.908 628.385 641.908C625.299 641.908 622.516 641.186 620.035 639.74C617.555 638.295 615.621 636.332 614.234 633.852C612.867 631.371 612.184 628.637 612.184 625.648C612.184 622.523 612.867 619.73 614.234 617.27C615.621 614.809 617.545 612.885 620.006 611.498C622.467 610.092 625.26 609.389 628.385 609.389C631.412 609.389 634.156 610.131 636.617 611.615C639.078 613.08 641.012 615.053 642.418 617.533C643.824 620.014 644.527 622.719 644.527 625.648ZM628.385 636.02C630.182 636.02 631.832 635.551 633.336 634.613C634.84 633.676 636.012 632.416 636.852 630.834C637.691 629.252 638.111 627.523 638.111 625.648C638.111 623.812 637.691 622.104 636.852 620.521C636.012 618.939 634.84 617.67 633.336 616.713C631.832 615.736 630.162 615.248 628.326 615.248C626.529 615.248 624.879 615.727 623.375 616.684C621.871 617.621 620.689 618.891 619.83 620.492C618.971 622.094 618.541 623.812 618.541 625.648C618.541 627.484 618.971 629.203 619.83 630.805C620.689 632.406 621.881 633.676 623.404 634.613C624.928 635.551 626.588 636.02 628.385 636.02ZM703.062 635.609V641H691.49V636.488C688.404 639.848 684.723 641.527 680.445 641.527C677.477 641.527 674.85 640.834 672.564 639.447C670.299 638.041 668.531 636.137 667.262 633.734C666.012 631.332 665.387 628.676 665.387 625.766C665.387 622.797 666.051 620.062 667.379 617.562C668.727 615.062 670.582 613.08 672.945 611.615C675.309 610.131 677.867 609.389 680.621 609.389C682.613 609.389 684.498 609.789 686.275 610.59C688.072 611.391 689.811 612.65 691.49 614.369V602.182H685.543V596.85H697.496V635.609H703.062ZM681.588 636.137C683.463 636.137 685.152 635.639 686.656 634.643C688.16 633.646 689.342 632.318 690.201 630.658C691.061 628.998 691.49 627.221 691.49 625.326C691.49 623.412 691.061 621.664 690.201 620.082C689.342 618.5 688.15 617.25 686.627 616.332C685.104 615.414 683.385 614.955 681.471 614.955C679.615 614.955 677.955 615.453 676.49 616.449C675.045 617.426 673.902 618.734 673.062 620.375C672.223 621.996 671.803 623.734 671.803 625.59C671.803 627.582 672.232 629.379 673.092 630.98C673.951 632.582 675.123 633.842 676.607 634.76C678.092 635.678 679.752 636.137 681.588 636.137ZM738.629 627.143H712.818C713.189 630.092 714.332 632.426 716.246 634.145C718.16 635.844 720.504 636.693 723.277 636.693C725.309 636.693 727.193 636.273 728.932 635.434C730.67 634.594 732.125 633.305 733.297 631.566L738.629 633.969C736.949 636.586 734.742 638.568 732.008 639.916C729.293 641.244 726.334 641.908 723.131 641.908C719.811 641.908 716.861 641.215 714.283 639.828C711.705 638.441 709.693 636.508 708.248 634.027C706.822 631.547 706.109 628.754 706.109 625.648C706.109 622.562 706.812 619.779 708.219 617.299C709.645 614.818 711.588 612.885 714.049 611.498C716.51 610.092 719.225 609.389 722.193 609.389C725.436 609.389 728.258 610.111 730.66 611.557C733.082 612.982 734.986 615.033 736.373 617.709C737.76 620.365 738.512 623.51 738.629 627.143ZM722.311 614.428C720.025 614.428 718.023 615.199 716.305 616.742C714.586 618.266 713.482 620.287 712.994 622.807H732.271C731.705 620.287 730.504 618.266 728.668 616.742C726.832 615.199 724.713 614.428 722.311 614.428ZM779.996 609.389C785.719 609.389 788.58 612.484 788.58 618.676V635.609H793.795V641H782.516V620.844C782.516 618.637 782.193 617.084 781.549 616.186C780.924 615.287 779.947 614.838 778.619 614.838C776.373 614.838 773.453 616.156 769.859 618.793V635.609H775.191V641H758.287V635.609H763.795V602.182H758.287V596.85H769.859V613.812C773.492 610.863 776.871 609.389 779.996 609.389ZM822.447 621.078V635.609H827.604V641H817.115V637.221C814.186 640.092 810.924 641.527 807.33 641.527C805.436 641.527 803.697 641.088 802.115 640.209C800.553 639.33 799.293 638.158 798.336 636.693C797.398 635.209 796.93 633.568 796.93 631.771C796.93 629.838 797.447 628.119 798.482 626.615C799.537 625.092 800.953 623.92 802.73 623.1C804.508 622.279 806.295 621.869 808.092 621.869C811.1 621.869 813.902 622.748 816.5 624.506V621.195C816.5 618.793 815.992 617.074 814.977 616.039C813.961 615.004 812.291 614.486 809.967 614.486C808.326 614.486 806.949 614.789 805.836 615.395C804.742 615.98 803.834 616.879 803.111 618.09L797.311 616.654C798.619 614.213 800.387 612.396 802.613 611.205C804.84 609.994 807.486 609.389 810.553 609.389C814.674 609.389 817.682 610.326 819.576 612.201C821.49 614.076 822.447 617.035 822.447 621.078ZM808.15 636.869C811.119 636.869 813.902 635.629 816.5 633.148V629.545C813.863 627.494 811.227 626.469 808.59 626.469C806.988 626.469 805.602 626.977 804.43 627.992C803.277 628.988 802.701 630.248 802.701 631.771C802.701 633.236 803.209 634.457 804.225 635.434C805.24 636.391 806.549 636.869 808.15 636.869ZM854.791 612.436V610.209H860.182V621.869H854.791C854.557 619.623 853.658 617.914 852.096 616.742C850.533 615.551 848.727 614.955 846.676 614.955C844.918 614.955 843.336 615.424 841.93 616.361C840.543 617.299 839.469 618.568 838.707 620.17C837.945 621.771 837.564 623.52 837.564 625.414C837.564 628.637 838.424 631.273 840.143 633.324C841.861 635.355 844.127 636.371 846.939 636.371C851.295 636.371 854.371 634.35 856.168 630.307L861.207 632.709C858.375 638.842 853.531 641.908 846.676 641.908C843.609 641.908 840.885 641.186 838.502 639.74C836.119 638.295 834.273 636.312 832.965 633.793C831.676 631.273 831.031 628.48 831.031 625.414C831.031 622.406 831.686 619.672 832.994 617.211C834.322 614.75 836.139 612.836 838.443 611.469C840.748 610.082 843.316 609.389 846.148 609.389C849.508 609.389 852.389 610.404 854.791 612.436ZM897.477 627.143H871.666C872.037 630.092 873.18 632.426 875.094 634.145C877.008 635.844 879.352 636.693 882.125 636.693C884.156 636.693 886.041 636.273 887.779 635.434C889.518 634.594 890.973 633.305 892.145 631.566L897.477 633.969C895.797 636.586 893.59 638.568 890.855 639.916C888.141 641.244 885.182 641.908 881.979 641.908C878.658 641.908 875.709 641.215 873.131 639.828C870.553 638.441 868.541 636.508 867.096 634.027C865.67 631.547 864.957 628.754 864.957 625.648C864.957 622.562 865.66 619.779 867.066 617.299C868.492 614.818 870.436 612.885 872.896 611.498C875.357 610.092 878.072 609.389 881.041 609.389C884.283 609.389 887.105 610.111 889.508 611.557C891.93 612.982 893.834 615.033 895.221 617.709C896.607 620.365 897.359 623.51 897.477 627.143ZM881.158 614.428C878.873 614.428 876.871 615.199 875.152 616.742C873.434 618.266 872.33 620.287 871.842 622.807H891.119C890.553 620.287 889.352 618.266 887.516 616.742C885.68 615.199 883.561 614.428 881.158 614.428ZM913.268 628.637V635.609H919.977V641H901.08V635.609H907.262V615.629H901.08V610.209H912.066V617.182C913.297 614.428 914.82 612.514 916.637 611.439C918.473 610.346 921.09 609.799 924.488 609.799H925.865V615.922H924.547C921.266 615.922 918.824 616.352 917.223 617.211C915.621 618.07 914.557 619.369 914.029 621.107C913.521 622.846 913.268 625.355 913.268 628.637ZM942.477 635.609V641H926.275V635.609H931.725V602.182H926.275V596.85H937.789V635.609H942.477ZM979.039 625.648C979.039 628.637 978.326 631.371 976.9 633.852C975.475 636.332 973.531 638.295 971.07 639.74C968.609 641.186 965.885 641.908 962.896 641.908C959.811 641.908 957.027 641.186 954.547 639.74C952.066 638.295 950.133 636.332 948.746 633.852C947.379 631.371 946.695 628.637 946.695 625.648C946.695 622.523 947.379 619.73 948.746 617.27C950.133 614.809 952.057 612.885 954.518 611.498C956.979 610.092 959.771 609.389 962.896 609.389C965.924 609.389 968.668 610.131 971.129 611.615C973.59 613.08 975.523 615.053 976.93 617.533C978.336 620.014 979.039 622.719 979.039 625.648ZM962.896 636.02C964.693 636.02 966.344 635.551 967.848 634.613C969.352 633.676 970.523 632.416 971.363 630.834C972.203 629.252 972.623 627.523 972.623 625.648C972.623 623.812 972.203 622.104 971.363 620.521C970.523 618.939 969.352 617.67 967.848 616.713C966.344 615.736 964.674 615.248 962.838 615.248C961.041 615.248 959.391 615.727 957.887 616.684C956.383 617.621 955.201 618.891 954.342 620.492C953.482 622.094 953.053 623.812 953.053 625.648C953.053 627.484 953.482 629.203 954.342 630.805C955.201 632.406 956.393 633.676 957.916 634.613C959.439 635.551 961.1 636.02 962.896 636.02ZM1021.31 609.389C1024.15 609.389 1026.71 610.111 1028.99 611.557C1031.28 612.982 1033.05 614.916 1034.32 617.357C1035.61 619.799 1036.26 622.436 1036.26 625.268C1036.26 628.197 1035.6 630.902 1034.29 633.383C1033 635.863 1031.22 637.846 1028.93 639.33C1026.65 640.795 1024.09 641.527 1021.26 641.527C1019.01 641.527 1016.87 641.068 1014.84 640.15C1012.83 639.232 1011.25 637.973 1010.09 636.371V641H998.756V635.609H1004.21V602.182H998.756V596.85H1010.09V614.604C1013.18 611.127 1016.92 609.389 1021.31 609.389ZM1020.05 636.137C1021.97 636.137 1023.68 635.619 1025.18 634.584C1026.69 633.549 1027.85 632.191 1028.67 630.512C1029.49 628.832 1029.9 627.045 1029.9 625.15C1029.9 623.275 1029.48 621.557 1028.64 619.994C1027.8 618.432 1026.64 617.191 1025.15 616.273C1023.67 615.355 1021.99 614.896 1020.11 614.896C1018.24 614.896 1016.56 615.375 1015.07 616.332C1013.59 617.289 1012.43 618.588 1011.59 620.229C1010.75 621.869 1010.33 623.695 1010.33 625.707C1010.33 627.621 1010.76 629.379 1011.62 630.98C1012.48 632.582 1013.65 633.842 1015.13 634.76C1016.62 635.678 1018.26 636.137 1020.05 636.137ZM1051.29 599.838C1051.29 600.834 1050.92 601.693 1050.2 602.416C1049.48 603.139 1048.62 603.5 1047.62 603.5C1046.63 603.5 1045.78 603.139 1045.07 602.416C1044.37 601.693 1044.02 600.834 1044.02 599.838C1044.02 598.842 1044.37 597.982 1045.07 597.26C1045.78 596.537 1046.63 596.176 1047.62 596.176C1048.66 596.176 1049.53 596.527 1050.23 597.23C1050.93 597.934 1051.29 598.803 1051.29 599.838ZM1055.62 635.609V641H1040.06V635.609H1044.87V615.629H1040.06V610.209H1050.93V635.609H1055.62ZM1091.77 627.143H1065.96C1066.33 630.092 1067.48 632.426 1069.39 634.145C1071.3 635.844 1073.65 636.693 1076.42 636.693C1078.45 636.693 1080.34 636.273 1082.08 635.434C1083.81 634.594 1085.27 633.305 1086.44 631.566L1091.77 633.969C1090.09 636.586 1087.89 638.568 1085.15 639.916C1082.44 641.244 1079.48 641.908 1076.28 641.908C1072.96 641.908 1070.01 641.215 1067.43 639.828C1064.85 638.441 1062.84 636.508 1061.39 634.027C1059.97 631.547 1059.25 628.754 1059.25 625.648C1059.25 622.562 1059.96 619.779 1061.36 617.299C1062.79 614.818 1064.73 612.885 1067.19 611.498C1069.65 610.092 1072.37 609.389 1075.34 609.389C1078.58 609.389 1081.4 610.111 1083.8 611.557C1086.23 612.982 1088.13 615.033 1089.52 617.709C1090.9 620.365 1091.66 623.51 1091.77 627.143ZM1075.46 614.428C1073.17 614.428 1071.17 615.199 1069.45 616.742C1067.73 618.266 1066.63 620.287 1066.14 622.807H1085.42C1084.85 620.287 1083.65 618.266 1081.81 616.742C1079.98 615.199 1077.86 614.428 1075.46 614.428ZM1125.67 620.287V635.609H1130.83V641H1119.61V620.668C1119.61 618.734 1119.32 617.348 1118.76 616.508C1118.21 615.668 1117.3 615.248 1116.03 615.248C1113.34 615.248 1110.31 616.576 1106.95 619.232V635.609H1112.25V641H1095.55V635.609H1100.97V615.629H1095.55V610.209H1106.95V613.93C1110.72 611.176 1114.26 609.799 1117.58 609.799C1120.34 609.799 1122.37 610.648 1123.68 612.348C1125.01 614.047 1125.67 616.693 1125.67 620.287Z" fill="#021526"/>
<path d="M59.5 357.75C79 357.75 94 365.417 104.5 380.75C115.167 396.083 120.5 414.667 120.5 436.5C120.5 453.333 117.833 469.25 112.5 484.25C107.167 499.083 98.8333 511.583 87.5 521.75C76.1667 531.75 62.9167 536.75 47.75 536.75C44.75 536.75 33.4167 535.583 13.75 533.25C16.0833 497.417 17.25 467.75 17.25 444.25C17.25 420.75 16.5 394.75 15 366.25C31.1667 360.583 46 357.75 59.5 357.75ZM54 506.25C61.6667 506.25 69.25 499.5 76.75 486C84.4167 472.333 88.25 457.667 88.25 442C88.25 426.167 85.5 413.167 80 403C74.6667 392.833 68.25 387.75 60.75 387.75C56.75 387.75 53 388.417 49.5 389.75C50.1667 414.417 50.5 435.167 50.5 452C50.5 468.667 50 486.083 49 504.25C50.1667 505.583 51.8333 506.25 54 506.25ZM218.738 360C217.238 386.333 216.488 416 216.488 449C216.488 482 217.572 512.083 219.738 539.25L185.988 536.25C183.822 502.25 182.738 471.583 182.738 444.25C182.738 416.75 183.488 387.667 184.988 357L218.738 360ZM373.004 361V391.75C354.337 391.75 336.837 392.333 320.504 393.5C320.171 398.333 319.837 406.917 319.504 419.25C319.337 431.417 319.171 438.917 319.004 441.75C337.671 439.25 352.671 438 364.004 438L369.004 465.5C350.337 466 333.587 467.167 318.754 469C318.754 495 319.087 517.917 319.754 537.75L286.004 534C285.671 507 285.504 481.917 285.504 458.75C285.504 435.583 286.837 405.167 289.504 367.5C318.004 363.167 345.837 361 373.004 361ZM466.473 360C464.973 386.333 464.223 416 464.223 449C464.223 482 465.306 512.083 467.473 539.25L433.723 536.25C431.556 502.25 430.473 471.583 430.473 444.25C430.473 416.75 431.223 387.667 432.723 357L466.473 360ZM582.738 389.25C575.405 389.25 568.988 398.333 563.488 416.5C557.988 434.5 555.238 450.5 555.238 464.5C555.238 493.833 562.905 508.5 578.238 508.5C582.572 508.5 586.322 506.667 589.488 503C592.822 499.167 595.155 495.25 596.488 491.25C597.988 487.25 599.738 481.75 601.738 474.75L633.488 477.25C629.155 497.75 622.655 513.417 613.988 524.25C605.488 535.083 593.572 540.5 578.238 540.5C560.238 540.5 546.322 533.75 536.488 520.25C526.822 506.583 521.988 489.25 521.988 468.25C521.988 443.75 526.822 419.917 536.488 396.75C541.155 385.25 547.655 375.833 555.988 368.5C564.488 361 574.155 357.25 584.988 357.25C598.322 357.25 607.988 361.667 613.988 370.5C616.988 374.833 619.405 379.25 621.238 383.75C623.238 388.25 624.655 394 625.488 401C626.988 412.167 627.905 424.167 628.238 437L595.988 434C595.988 412.5 593.988 399 589.988 393.5C588.155 390.667 585.738 389.25 582.738 389.25ZM729.344 360C727.844 386.333 727.094 416 727.094 449C727.094 482 728.177 512.083 730.344 539.25L696.594 536.25C694.427 502.25 693.344 471.583 693.344 444.25C693.344 416.75 694.094 387.667 695.594 357L729.344 360ZM704.344 341.5L693.094 327.25C711.927 314.917 727.26 306.167 739.094 301L752.594 323.25C736.76 327.083 720.677 333.167 704.344 341.5ZM799.609 531.5C797.443 497.167 796.359 465.75 796.359 437.25C796.359 408.583 797.276 382.583 799.109 359.25L832.359 362.25C829.859 390.917 828.609 418.333 828.609 444.5C828.609 470.667 829.026 489.917 829.859 502.25C835.859 501.417 850.609 499.75 874.109 497.25L879.109 526.25C866.609 527.75 848.943 530.25 826.109 533.75L799.609 531.5ZM969.783 357.75C989.283 357.75 1004.28 365.417 1014.78 380.75C1025.45 396.083 1030.78 414.667 1030.78 436.5C1030.78 453.333 1028.12 469.25 1022.78 484.25C1017.45 499.083 1009.12 511.583 997.783 521.75C986.45 531.75 973.2 536.75 958.033 536.75C955.033 536.75 943.7 535.583 924.033 533.25C926.367 497.417 927.533 467.75 927.533 444.25C927.533 420.75 926.783 394.75 925.283 366.25C941.45 360.583 956.283 357.75 969.783 357.75ZM964.283 506.25C971.95 506.25 979.533 499.5 987.033 486C994.7 472.333 998.533 457.667 998.533 442C998.533 426.167 995.783 413.167 990.283 403C984.95 392.833 978.533 387.75 971.033 387.75C967.033 387.75 963.283 388.417 959.783 389.75C960.45 414.417 960.783 435.167 960.783 452C960.783 468.667 960.283 486.083 959.283 504.25C960.45 505.583 962.117 506.25 964.283 506.25ZM1089.52 534C1088.85 507.667 1088.52 482.75 1088.52 459.25C1088.52 435.75 1089.85 405.167 1092.52 367.5C1121.02 363.167 1148.85 361 1176.02 361V391.75C1157.19 391.75 1139.69 392.333 1123.52 393.5C1122.85 412.167 1122.44 426.5 1122.27 436.5C1134.94 434.667 1149.94 433.583 1167.27 433.25L1172.02 460.75C1160.85 460.917 1144.1 462.167 1121.77 464.5C1121.77 484.5 1121.85 498.917 1122.02 507.75C1136.52 506.583 1153.85 504.083 1174.02 500.25L1178.27 527.75C1164.1 534.25 1147.35 537.5 1128.02 537.5L1089.52 534ZM1222.84 363L1255.09 366C1261.42 407.5 1269.34 447.417 1278.84 485.75L1279.84 485.5C1291.5 440.667 1300.92 396.833 1308.09 354L1341.09 356.75C1329.92 414.083 1313.34 473.333 1291.34 534.5L1262.59 532C1245.59 471.833 1232.34 415.5 1222.84 363ZM1446.74 423.75C1448.91 415.583 1449.99 408.75 1449.99 403.25C1449.99 397.75 1448.49 393.25 1445.49 389.75C1442.49 386.083 1438.57 384.25 1433.74 384.25C1429.07 384.25 1425.16 386.583 1421.99 391.25C1418.82 395.917 1417.24 401.25 1417.24 407.25C1417.24 418.917 1423.91 428.917 1437.24 437.25C1450.57 445.917 1459.66 452.167 1464.49 456C1469.32 459.833 1472.74 463.333 1474.74 466.5C1479.74 474.667 1482.24 483.083 1482.24 491.75C1482.24 506.75 1477.16 518.75 1466.99 527.75C1456.99 536.583 1445.66 541 1432.99 541C1417.99 541 1405.41 534.667 1395.24 522C1387.91 512.833 1381.16 501.417 1374.99 487.75L1399.24 476C1403.07 486 1407.82 494.5 1413.49 501.5C1419.32 508.333 1425.49 511.75 1431.99 511.75C1436.16 511.75 1439.91 510.417 1443.24 507.75C1446.57 505.083 1448.24 501.083 1448.24 495.75C1448.24 490.25 1446.16 485.167 1441.99 480.5C1437.82 475.833 1432.24 471.083 1425.24 466.25C1418.24 461.417 1412.82 457.5 1408.99 454.5C1405.16 451.333 1400.91 447.333 1396.24 442.5C1387.41 433.167 1382.99 421.25 1382.99 406.75C1382.99 392.083 1388.07 379.833 1398.24 370C1408.41 360 1420.49 355 1434.49 355C1448.49 355 1460.24 360.417 1469.74 371.25C1479.41 382.083 1484.24 393.25 1484.24 404.75C1484.24 416.083 1482.07 425.833 1477.74 434L1446.74 423.75Z" fill="#04668D"/>
<path d="M432 237.5C430.667 194.167 430 161.5 430 139.5C430 117.5 431.417 94 434.25 69L481.25 72.75C487.083 93.75 493.25 123.167 499.75 161C509.083 130.5 517.333 97.5 524.5 62L571.75 66.25C573.083 117.75 573.75 155.417 573.75 179.25C573.75 202.917 573 224 571.5 242.5L537.25 239.25C539.417 218.25 541.25 173.75 542.75 105.75L540.75 105.5C539.083 112 536.417 123.167 532.75 139C525.083 171.833 517.667 199.833 510.5 223L487.75 221C483.75 205 479.083 184.333 473.75 159C468.583 133.5 464.583 114.75 461.75 102.75L459.75 102.5C461.25 158.167 463 204.167 465 240.5L432 237.5ZM680.598 244.5C664.764 244.5 651.348 237.417 640.348 223.25C629.514 208.917 624.098 187.25 624.098 158.25C624.098 129.083 630.014 105.333 641.848 87C653.848 68.6667 667.931 59.5 684.098 59.5C700.264 59.5 713.681 66.6667 724.348 81C735.181 95.3333 740.598 116.917 740.598 145.75C740.598 174.583 734.598 198.25 722.598 216.75C710.598 235.25 696.598 244.5 680.598 244.5ZM684.348 89.25C677.014 89.25 670.681 95.75 665.348 108.75C660.014 121.583 657.348 137.833 657.348 157.5C657.348 177 659.598 191.5 664.098 201C668.764 210.333 674.514 215 681.348 215C688.181 215 694.181 208.5 699.348 195.5C704.681 182.5 707.348 166.25 707.348 146.75C707.348 127.083 705.098 112.583 700.598 103.25C696.264 93.9167 690.848 89.25 684.348 89.25ZM840.469 60.75C859.969 60.75 874.969 68.4167 885.469 83.75C896.135 99.0833 901.469 117.667 901.469 139.5C901.469 156.333 898.802 172.25 893.469 187.25C888.135 202.083 879.802 214.583 868.469 224.75C857.135 234.75 843.885 239.75 828.719 239.75C825.719 239.75 814.385 238.583 794.719 236.25C797.052 200.417 798.219 170.75 798.219 147.25C798.219 123.75 797.469 97.75 795.969 69.25C812.135 63.5833 826.969 60.75 840.469 60.75ZM834.969 209.25C842.635 209.25 850.219 202.5 857.719 189C865.385 175.333 869.219 160.667 869.219 145C869.219 129.167 866.469 116.167 860.969 106C855.635 95.8333 849.219 90.75 841.719 90.75C837.719 90.75 833.969 91.4167 830.469 92.75C831.135 117.417 831.469 138.167 831.469 155C831.469 171.667 830.969 189.083 829.969 207.25C831.135 208.583 832.802 209.25 834.969 209.25ZM1006.46 244.5C990.624 244.5 977.207 237.417 966.207 223.25C955.374 208.917 949.957 187.25 949.957 158.25C949.957 129.083 955.874 105.333 967.707 87C979.707 68.6667 993.79 59.5 1009.96 59.5C1026.12 59.5 1039.54 66.6667 1050.21 81C1061.04 95.3333 1066.46 116.917 1066.46 145.75C1066.46 174.583 1060.46 198.25 1048.46 216.75C1036.46 235.25 1022.46 244.5 1006.46 244.5ZM1010.21 89.25C1002.87 89.25 996.54 95.75 991.207 108.75C985.874 121.583 983.207 137.833 983.207 157.5C983.207 177 985.457 191.5 989.957 201C994.624 210.333 1000.37 215 1007.21 215C1014.04 215 1020.04 208.5 1025.21 195.5C1030.54 182.5 1033.21 166.25 1033.21 146.75C1033.21 127.083 1030.96 112.583 1026.46 103.25C1022.12 93.9167 1016.71 89.25 1010.21 89.25Z" fill="#04668D"/>
</svg>
